<svg width="61" height="61" viewBox="0 0 61 61" fill="none" xmlns="http://www.w3.org/2000/svg">
<rect x="1" width="59" height="59" rx="8" fill="black"/>
<path d="M35.688 16.92C35.688 17.08 35.656 17.32 35.592 17.64C35.592 17.768 35.56 17.896 35.496 18.024C35.464 18.376 35.4 18.728 35.304 19.08C35.24 19.432 35.16 19.8 35.064 20.184C35.032 20.376 35 20.584 34.968 20.808C34.936 21 34.888 21.208 34.824 21.432C34.696 21.912 34.552 22.392 34.392 22.872C34.264 23.352 34.136 23.832 34.008 24.312C33.912 24.536 33.848 24.76 33.816 24.984C33.816 25.208 33.768 25.432 33.672 25.656C33.608 25.848 33.544 26.056 33.48 26.28C33.448 26.472 33.4 26.68 33.336 26.904C33.272 27.096 33.224 27.304 33.192 27.528C33.192 27.72 33.16 27.928 33.096 28.152C33.128 28.152 33.144 28.168 33.144 28.2C33.144 28.264 33.16 28.296 33.192 28.296C33.256 28.328 33.352 28.344 33.48 28.344C33.64 28.312 33.752 28.312 33.816 28.344C33.88 28.344 33.96 28.392 34.056 28.488C34.152 28.584 34.216 28.664 34.248 28.728C34.248 28.792 34.2 28.904 34.104 29.064C34.04 29.224 33.976 29.336 33.912 29.4C33.848 29.432 33.736 29.48 33.576 29.544C33.448 29.576 33.352 29.592 33.288 29.592C33.224 29.656 33.144 29.688 33.048 29.688C32.92 29.752 32.808 29.768 32.712 29.736C32.648 29.672 32.6 29.704 32.568 29.832C32.44 30.312 32.312 30.744 32.184 31.128C32.088 31.512 31.992 31.944 31.896 32.424C31.832 32.68 31.768 32.92 31.704 33.144C31.64 33.336 31.608 33.56 31.608 33.816C31.608 33.912 31.576 34.024 31.512 34.152C31.48 34.248 31.464 34.36 31.464 34.488C31.4 34.744 31.32 35 31.224 35.256C31.16 35.512 31.144 35.784 31.176 36.072C31.08 36.328 31.016 36.6 30.984 36.888C30.952 37.144 30.904 37.4 30.84 37.656C30.712 38.04 30.648 38.424 30.648 38.808C30.648 39.16 30.632 39.512 30.6 39.864C30.568 39.96 30.552 40.056 30.552 40.152C30.584 40.216 30.584 40.28 30.552 40.344C30.456 40.6 30.392 40.872 30.36 41.16C30.36 41.448 30.36 41.72 30.36 41.976C30.328 42.392 30.328 42.808 30.36 43.224C30.424 43.608 30.44 44.008 30.408 44.424C30.472 44.616 30.52 44.808 30.552 45C30.584 45.224 30.616 45.432 30.648 45.624C30.712 45.848 30.616 45.96 30.36 45.96H29.928C29.672 45.928 29.48 45.784 29.352 45.528C29.288 45.464 29.256 45.384 29.256 45.288C29 44.68 28.872 44.12 28.872 43.608C28.904 43.288 28.92 42.984 28.92 42.696C28.952 42.408 28.936 42.136 28.872 41.88V41.688C29 41.336 29.048 41 29.016 40.68C29.016 40.36 29.048 40.024 29.112 39.672C29.144 39.512 29.16 39.288 29.16 39L29.256 38.472C29.256 38.408 29.272 38.36 29.304 38.328C29.336 38.264 29.352 38.2 29.352 38.136C29.352 37.72 29.384 37.32 29.448 36.936C29.544 36.552 29.624 36.152 29.688 35.736C29.688 35.512 29.704 35.336 29.736 35.208C29.832 34.984 29.88 34.76 29.88 34.536C29.912 34.28 29.976 34.024 30.072 33.768C30.104 33.704 30.104 33.656 30.072 33.624C30.072 33.56 30.072 33.496 30.072 33.432C30.072 32.888 30.184 32.376 30.408 31.896L30.552 31.416C30.616 31.192 30.664 31.016 30.696 30.888C30.76 30.76 30.808 30.568 30.84 30.312C30.84 30.248 30.856 30.2 30.888 30.168C30.952 30.104 31 30.04 31.032 29.976C31.064 29.848 31.064 29.784 31.032 29.784C31 29.784 30.904 29.8 30.744 29.832C30.488 29.896 30.216 29.912 29.928 29.88C29.672 29.848 29.416 29.864 29.16 29.928C28.36 30.024 27.512 30.168 26.616 30.36C26.072 30.456 25.528 30.552 24.984 30.648C24.472 30.712 23.944 30.824 23.4 30.984L22.2 31.272C21.784 31.4 21.384 31.528 21 31.656C20.648 31.752 20.28 31.88 19.896 32.04C19.448 32.136 19.016 32.28 18.6 32.472C18.184 32.664 17.752 32.824 17.304 32.952C16.952 33.048 16.68 33.256 16.488 33.576C16.36 33.736 16.264 33.896 16.2 34.056C16.136 34.184 16.056 34.328 15.96 34.488C15.704 34.936 15.512 35.272 15.384 35.496C15.256 35.72 15.144 35.928 15.048 36.12C14.952 36.312 14.856 36.536 14.76 36.792C14.664 37.016 14.504 37.336 14.28 37.752L13.368 39.288C13.208 39.544 13.096 39.736 13.032 39.864C12.968 39.96 12.904 40.04 12.84 40.104C12.776 40.168 12.696 40.248 12.6 40.344C12.536 40.44 12.44 40.6 12.312 40.824L11.784 41.64C11.72 41.8 11.64 41.928 11.544 42.024C11.352 42.376 11.048 42.504 10.632 42.408C10.344 42.408 10.04 42.328 9.72 42.168C9.56 42.104 9.448 42.008 9.384 41.88C9.192 41.688 9.208 41.512 9.432 41.352C9.656 41.128 9.864 40.904 10.056 40.68C10.248 40.424 10.424 40.168 10.584 39.912C10.712 39.688 10.808 39.544 10.872 39.48C10.936 39.416 10.984 39.368 11.016 39.336C11.08 39.272 11.144 39.208 11.208 39.144C11.272 39.08 11.368 38.936 11.496 38.712C11.56 38.648 11.592 38.6 11.592 38.568C11.624 38.504 11.656 38.456 11.688 38.424C11.72 38.488 11.816 38.392 11.976 38.136C12.168 37.88 12.36 37.592 12.552 37.272C12.744 36.92 12.92 36.584 13.08 36.264C13.272 35.944 13.384 35.752 13.416 35.688C13.48 35.56 13.528 35.432 13.56 35.304C13.624 35.176 13.704 35.064 13.8 34.968C13.928 34.808 14.024 34.632 14.088 34.44C14.152 34.248 14.248 34.072 14.376 33.912C14.408 33.88 14.408 33.848 14.376 33.816C14.344 33.752 14.312 33.704 14.28 33.672C14.024 33.608 13.832 33.544 13.704 33.48C13.384 33.32 13.128 33.144 12.936 32.952C12.808 32.824 12.76 32.68 12.792 32.52C12.824 32.232 12.968 32.04 13.224 31.944C13.384 31.944 13.512 31.928 13.608 31.896C14.312 31.832 14.936 31.72 15.48 31.56C15.576 31.56 15.688 31.528 15.816 31.464C15.944 31.4 16.008 31.352 16.008 31.32C16.232 31 16.44 30.696 16.632 30.408C16.856 30.088 17.048 29.768 17.208 29.448L17.784 28.488C17.944 28.328 18.088 28.152 18.216 27.96C18.344 27.768 18.456 27.576 18.552 27.384C18.648 27.224 18.728 27.064 18.792 26.904C18.888 26.744 19.016 26.584 19.176 26.424C19.272 26.328 19.32 26.264 19.32 26.232C19.48 25.912 19.672 25.624 19.896 25.368C20.12 25.08 20.312 24.776 20.472 24.456C20.568 24.264 20.68 24.088 20.808 23.928C20.936 23.768 21.064 23.592 21.192 23.4C21.32 23.208 21.432 23.032 21.528 22.872C21.624 22.68 21.752 22.504 21.912 22.344L22.728 21.192C23.112 20.648 23.512 20.104 23.928 19.56C24.344 19.016 24.76 18.472 25.176 17.928L26.328 16.536C26.52 16.312 26.712 16.088 26.904 15.864C27.096 15.64 27.304 15.416 27.528 15.192C27.592 15.096 27.672 15.016 27.768 14.952L30.168 12.696C30.424 12.504 30.616 12.376 30.744 12.312C30.872 12.28 31 12.2 31.128 12.072C31.288 11.912 31.464 11.784 31.656 11.688C31.88 11.592 32.12 11.496 32.376 11.4C32.76 11.304 33.16 11.288 33.576 11.352C33.672 11.352 33.784 11.384 33.912 11.448L34.728 11.88C34.984 12.008 35.192 12.232 35.352 12.552C35.672 13.128 35.832 13.736 35.832 14.376C35.832 14.6 35.816 14.824 35.784 15.048C35.784 15.272 35.784 15.496 35.784 15.72L35.688 16.92ZM23.688 22.44V22.488C23.592 22.584 23.544 22.616 23.544 22.584C23.512 22.68 23.48 22.776 23.448 22.872C23.416 22.936 23.384 23.048 23.352 23.208C23.288 23.336 23.192 23.416 23.064 23.448C22.968 23.48 22.888 23.544 22.824 23.64C22.664 23.896 22.504 24.136 22.344 24.36C22.216 24.552 22.12 24.792 22.056 25.08C22.056 25.144 22.008 25.224 21.912 25.32C21.88 25.416 21.784 25.496 21.624 25.56C21.4 25.752 21.208 26.056 21.048 26.472C20.984 26.792 20.824 27.08 20.568 27.336C20.504 27.368 20.472 27.4 20.472 27.432C20.472 27.464 20.456 27.496 20.424 27.528C20.36 27.592 20.312 27.656 20.28 27.72C20.28 27.784 20.248 27.848 20.184 27.912C19.992 28.04 19.832 28.184 19.704 28.344C19.608 28.504 19.512 28.68 19.416 28.872C19.352 28.968 19.288 29.064 19.224 29.16C19.192 29.256 19.144 29.368 19.08 29.496C19.016 29.56 18.952 29.64 18.888 29.736C18.824 29.8 18.776 29.896 18.744 30.024C18.712 30.152 18.664 30.264 18.6 30.36C18.536 30.424 18.472 30.52 18.408 30.648V30.744C18.408 30.744 18.44 30.76 18.504 30.792L21.192 30.072L24.168 29.304L24.744 29.16C25 29.096 25.24 29.048 25.464 29.016C25.72 28.952 25.976 28.92 26.232 28.92C26.488 28.888 26.728 28.84 26.952 28.776C27.176 28.712 27.416 28.648 27.672 28.584C27.704 28.552 27.752 28.536 27.816 28.536C28.04 28.568 28.248 28.536 28.44 28.44C28.632 28.344 28.856 28.328 29.112 28.392C29.24 28.392 29.32 28.376 29.352 28.344C29.352 28.344 29.4 28.344 29.496 28.344C29.624 28.344 29.768 28.344 29.928 28.344C30.088 28.344 30.216 28.344 30.312 28.344C30.44 28.312 30.504 28.296 30.504 28.296H30.936C31.224 28.296 31.4 28.152 31.464 27.864V27.768C31.496 27.384 31.592 27 31.752 26.616C32.008 26.168 32.136 25.704 32.136 25.224C32.136 25.096 32.168 24.968 32.232 24.84C32.328 24.616 32.392 24.408 32.424 24.216C32.456 23.992 32.504 23.768 32.568 23.544C32.664 23.288 32.744 23.048 32.808 22.824C32.872 22.6 32.952 22.376 33.048 22.152C33.208 21.736 33.288 21.304 33.288 20.856C33.288 20.696 33.304 20.536 33.336 20.376C33.368 20.184 33.416 20.008 33.48 19.848C33.544 19.592 33.608 19.336 33.672 19.08C33.768 18.824 33.8 18.568 33.768 18.312C33.768 18.28 33.768 18.248 33.768 18.216C33.8 18.184 33.816 18.152 33.816 18.12C33.944 17.768 34.024 17.432 34.056 17.112C34.088 16.76 34.136 16.408 34.2 16.056C34.232 15.8 34.248 15.576 34.248 15.384C34.248 15.16 34.248 14.92 34.248 14.664C34.216 14.504 34.184 14.328 34.152 14.136C34.152 13.944 34.152 13.752 34.152 13.56C34.152 13.432 34.136 13.32 34.104 13.224C34.072 13.128 34.024 13.016 33.96 12.888C33.896 12.728 33.768 12.68 33.576 12.744C33.48 12.744 33.416 12.76 33.384 12.792C33.224 12.856 33.064 12.92 32.904 12.984C32.776 13.016 32.616 13.064 32.424 13.128C32.232 13.128 32.088 13.208 31.992 13.368C31.928 13.496 31.816 13.592 31.656 13.656C31.56 13.688 31.48 13.736 31.416 13.8C31.352 13.864 31.288 13.912 31.224 13.944C31.16 14.008 31.08 14.072 30.984 14.136C30.92 14.168 30.856 14.216 30.792 14.28L30.648 14.472C30.296 14.6 30.024 14.792 29.832 15.048C29.64 15.304 29.4 15.528 29.112 15.72H29.064C29.032 15.72 29.016 15.736 29.016 15.768C28.984 15.96 28.904 16.12 28.776 16.248C28.68 16.344 28.552 16.44 28.392 16.536C28.328 16.6 28.264 16.664 28.2 16.728C28.136 16.792 28.072 16.856 28.008 16.92C27.88 17.112 27.736 17.304 27.576 17.496C27.416 17.656 27.24 17.832 27.048 18.024L26.328 18.936C26.232 19.096 26.104 19.256 25.944 19.416C25.816 19.576 25.704 19.736 25.608 19.896C25 20.6 24.456 21.304 23.976 22.008L23.688 22.44ZM45.3071 28.728C45.3071 28.792 45.2911 28.84 45.2591 28.872C45.2591 28.904 45.2591 28.952 45.2591 29.016C45.2591 29.08 45.2271 29.128 45.1631 29.16C45.0991 29.192 45.0511 29.192 45.0191 29.16C44.9871 29.16 44.9551 29.144 44.9231 29.112C44.7631 28.984 44.5871 28.92 44.3951 28.92C44.2031 28.888 43.9951 28.888 43.7711 28.92C43.2911 29.048 42.7951 29.192 42.2831 29.352C41.8031 29.512 41.3391 29.72 40.8911 29.976C40.6031 30.104 40.2831 30.312 39.9311 30.6C39.7391 30.76 39.7711 30.888 40.0271 30.984C40.1551 31.048 40.2511 31.08 40.3151 31.08C40.5071 31.144 40.6991 31.208 40.8911 31.272C41.0831 31.304 41.2911 31.352 41.5151 31.416C41.8031 31.48 42.0751 31.56 42.3311 31.656C42.6191 31.752 42.9071 31.848 43.1951 31.944C43.4191 32.04 43.5951 32.104 43.7231 32.136C43.8511 32.136 44.0271 32.216 44.2511 32.376C44.4751 32.504 44.6671 32.552 44.8271 32.52C45.3391 32.392 45.8831 32.28 46.4591 32.184C46.6511 32.12 46.8271 32.072 46.9871 32.04C47.1791 32.008 47.3871 31.976 47.6111 31.944C47.7071 31.944 47.8991 31.912 48.1871 31.848C48.4751 31.784 48.7791 31.72 49.0991 31.656C49.4191 31.56 49.7231 31.48 50.0111 31.416C50.2991 31.352 50.4911 31.32 50.5871 31.32C50.6831 31.32 50.7791 31.304 50.8751 31.272C50.9711 31.24 51.0671 31.224 51.1631 31.224C51.3231 31.128 51.4191 31.112 51.4511 31.176C51.6431 31.144 51.8991 31.112 52.2191 31.08C52.5391 31.016 52.7311 31.064 52.7951 31.224C52.9871 31.384 53.0511 31.528 52.9871 31.656C52.9231 31.752 52.8111 31.832 52.6511 31.896C52.4911 31.96 52.2991 32.008 52.0751 32.04C51.8831 32.072 51.7231 32.088 51.5951 32.088C51.3711 32.088 51.1471 32.12 50.9231 32.184C50.7311 32.248 50.5391 32.312 50.3471 32.376L47.6111 33C47.3231 33.064 46.9391 33.176 46.4591 33.336C45.9791 33.464 45.6911 33.576 45.5951 33.672C45.4991 33.736 45.4991 33.848 45.5951 34.008C45.7231 34.136 45.8031 34.248 45.8351 34.344C45.8991 34.504 45.9151 34.632 45.8831 34.728C45.8831 34.792 45.8831 34.888 45.8831 35.016C45.8511 35.368 45.7871 35.656 45.6911 35.88C45.6271 36.072 45.4351 36.344 45.1151 36.696C44.8271 37.048 44.5071 37.352 44.1551 37.608C43.8351 37.864 43.4991 38.12 43.1471 38.376C42.7631 38.632 42.3631 38.872 41.9471 39.096C41.5631 39.288 41.1631 39.464 40.7471 39.624C40.6831 39.688 40.6191 39.72 40.5551 39.72C40.2031 39.784 39.8671 39.864 39.5471 39.96C39.2591 40.056 38.9551 40.104 38.6351 40.104C38.5391 40.104 38.4591 40.12 38.3951 40.152C38.3311 40.184 38.2671 40.2 38.2031 40.2C37.9471 40.232 37.6911 40.232 37.4351 40.2C37.1791 40.136 36.9391 40.024 36.7151 39.864C36.5551 39.768 36.4431 39.672 36.3791 39.576C36.2831 39.448 36.2031 39.304 36.1391 39.144L35.9951 38.424C35.9951 38.328 36.0271 38.248 36.0911 38.184C36.2511 37.704 36.4751 37.32 36.7631 37.032C37.1151 36.712 37.4671 36.424 37.8191 36.168C38.1391 35.88 38.4911 35.624 38.8751 35.4C39.0671 35.304 39.2431 35.192 39.4031 35.064C39.5631 34.936 39.7551 34.84 39.9791 34.776C40.0431 34.744 40.0911 34.728 40.1231 34.728C40.1551 34.728 40.1871 34.712 40.2191 34.68C40.6671 34.424 41.1151 34.184 41.5631 33.96C42.0431 33.736 42.5071 33.544 42.9551 33.384C43.0191 33.384 43.0511 33.352 43.0511 33.288C43.0191 33.256 43.0031 33.272 43.0031 33.336C43.0031 33.368 42.9871 33.368 42.9551 33.336C42.6671 33.24 42.3631 33.144 42.0431 33.048C41.7551 32.92 41.4671 32.824 41.1791 32.76L40.2671 32.52C40.0431 32.488 39.8191 32.408 39.5951 32.28C38.9551 32.056 38.6031 31.56 38.5391 30.792C38.4431 30.28 38.5871 29.848 38.9711 29.496C39.0671 29.4 39.1631 29.32 39.2591 29.256C39.3551 29.16 39.4511 29.08 39.5471 29.016C39.8991 28.76 40.2671 28.552 40.6511 28.392C41.0671 28.2 41.4671 28.024 41.8511 27.864C42.5871 27.608 43.2431 27.432 43.8191 27.336C43.8831 27.336 43.9471 27.336 44.0111 27.336C44.1071 27.304 44.1871 27.288 44.2511 27.288C44.6031 27.224 44.8591 27.352 45.0191 27.672C45.0191 27.704 45.0511 27.784 45.1151 27.912C45.3391 28.168 45.4031 28.44 45.3071 28.728ZM37.7231 38.952C37.8831 38.952 38.0431 38.936 38.2031 38.904C38.3631 38.872 38.5231 38.84 38.6831 38.808C39.2911 38.68 39.9631 38.456 40.6991 38.136C40.8591 38.04 41.0191 37.944 41.1791 37.848C41.3391 37.752 41.4991 37.672 41.6591 37.608L41.9951 37.368L43.1951 36.552C43.6751 36.2 44.1231 35.768 44.5391 35.256C44.6031 35.192 44.6351 35.112 44.6351 35.016C44.6351 34.888 44.6511 34.792 44.6831 34.728C44.7471 34.664 44.7471 34.648 44.6831 34.68C44.6511 34.712 44.6671 34.696 44.7311 34.632C44.7311 34.568 44.6831 34.456 44.5871 34.296C44.4911 34.136 44.4111 34.072 44.3471 34.104C43.9311 34.264 43.5471 34.44 43.1951 34.632C42.8431 34.824 42.4591 35.016 42.0431 35.208C41.8831 35.272 41.7231 35.368 41.5631 35.496C41.4351 35.592 41.2911 35.672 41.1311 35.736L40.8431 35.88L39.8351 36.456C39.7711 36.52 39.6911 36.568 39.5951 36.6C39.4991 36.632 39.4191 36.68 39.3551 36.744C39.1631 36.904 38.9551 37.064 38.7311 37.224C38.5391 37.352 38.3471 37.496 38.1551 37.656C37.7711 37.944 37.4511 38.312 37.1951 38.76L37.2431 38.856C37.4991 38.92 37.6591 38.952 37.7231 38.952Z" fill="white"/>
</svg>
